/* XPM */
static char *_d3851c03d04408c842e1f73507897ee0iDfsq6SiI9bs3fU[] = {
/* columns rows colors chars-per-pixel */
"64 64 2 1 ",
"  c None",
". c black",
/* pixels */
"                                                                ",
"                                                                ",
"                                                                ",
"                                                                ",
"                                                                ",
"                                                                ",
"      ......         ......      ...         ...   ............ ",
"      ......         ......      ...         ...   ............ ",
"      ......         ......      ...         ...   ............ ",
"   ...            ...      ...   ......   ......   ...          ",
"   ...            ...      ...   ......   ......   ...          ",
"   ...            ...      ...   ......   ......   ...          ",
"   ...   ......   ............   ...   ...   ...   .........    ",
"   ...   ......   ............   ...   ...   ...   .........    ",
"   ...   ......   ............   ...   ...   ...   .........    ",
"   ...      ...   ...      ...   ...         ...   ...          ",
"   ...      ...   ...      ...   ...         ...   ...          ",
"   ...      ...   ...      ...   ...         ...   ...          ",
"      ......      ...      ...   ...         ...   ............ ",
"      ......      ...      ...   ...         ...   ............ ",
"      ......      ...      ...   ...         ...   ............ ",
"                                                                ",
"                                                                ",
"                                                                ",
"      ......      ...         ...   ............   .........    ",
"      ......      ...         ...   ............   .........    ",
"      ......      ...         ...   ............   .........    ",
"   ...      ...   ...         ...   ...            ...      ... ",
"   ...      ...   ...         ...   ...            ...      ... ",
"   ...      ...   ...         ...   ...            ...      ... ",
"   ...      ...      ...   ...      .........      .........    ",
"   ...      ...      ...   ...      .........      .........    ",
"   ...      ...      ...   ...      .........      .........    ",
"   ...      ...      ...   ...      ...            ...   ...    ",
"   ...      ...      ...   ...      ...            ...   ...    ",
"   ...      ...      ...   ...      ...            ...   ...    ",
"      ......            ...         ............   ...      ... ",
"      ......            ...         ............   ...      ... ",
"      ......            ...         ............   ...      ... ",
"                                                                ",
"                                                                ",
"                                                                ",
"                                                                ",
"                                                                ",
"                                                                ",
"                                                                ",
"                                                                ",
"                                                                ",
"                                                                ",
"                                                                ",
"                                                                ",
"                                                                ",
"                                                                ",
"                                                                ",
"                                                                ",
"                                                                ",
"                                                                ",
"                                                                ",
"                                                                ",
"                                                                ",
"                                                                ",
"                                                                ",
"                                                                ",
"                                                                "
};
