/* XPM */
static char *_b31b3946a504697a2c6e3f0189c82ef1mdVvQQAVa49NWxV[] = {
/* columns rows colors chars-per-pixel */
"64 64 249 2 ",
"   c #140C01",
".  c #190C08",
"X  c #1C140C",
"o  c #191507",
"O  c #1C1412",
"+  c #1E1914",
"@  c #1E181C",
"#  c #0E0E0A",
"$  c #240C03",
"%  c #231302",
"&  c #281909",
"*  c #341C0B",
"=  c #371A0A",
"-  c #211B1C",
";  c #281B16",
":  c #3A1D12",
">  c #371D18",
",  c #1E2211",
"<  c #39240B",
"1  c #2D221C",
"2  c #282416",
"3  c #332314",
"4  c #3B2315",
"5  c #34241A",
"6  c #3B261A",
"7  c #3C2A1D",
"8  c #382A17",
"9  c #333219",
"0  c #1D1B25",
"q  c #261C22",
"w  c #391D21",
"e  c #2D2323",
"r  c #292728",
"t  c #332622",
"y  c #3B2B23",
"u  c #382928",
"i  c #393529",
"p  c #2B2C34",
"a  c #282938",
"s  c #342C35",
"d  c #2D3136",
"f  c #2E343C",
"g  c #33343C",
"h  c #39373C",
"j  c #34393C",
"k  c #3C3B3D",
"l  c #393536",
"z  c #2C3424",
"x  c #1E2A35",
"c  c #441C14",
"v  c #40130D",
"b  c #422415",
"n  c #43251B",
"m  c #432B1C",
"M  c #492D1C",
"N  c #452817",
"B  c #47321C",
"V  c #522B1A",
"C  c #432D22",
"Z  c #4B2D23",
"A  c #432D29",
"S  c #472827",
"D  c #512C22",
"F  c #453224",
"G  c #4B3324",
"H  c #43332B",
"J  c #4B352A",
"K  c #4C3A2C",
"L  c #463B28",
"P  c #543B2D",
"I  c #553429",
"U  c #472E32",
"Y  c #423C3C",
"T  c #473936",
"R  c #573B34",
"E  c #663C36",
"W  c #6C3F2F",
"Q  c #3C4434",
"!  c #48462E",
"~  c #494739",
"^  c #57483A",
"/  c #54543B",
"(  c #524F32",
")  c #654739",
"_  c #754938",
"`  c #6C422F",
"'  c #6C7236",
"]  c #535419",
"[  c #322E42",
"{  c #2B354B",
"}  c #2C3747",
"|  c #343443",
" . c #343B43",
".. c #3B3C44",
"X. c #323B4C",
"o. c #3C3D4A",
"O. c #373646",
"+. c #333C52",
"@. c #373E54",
"#. c #2B354C",
"$. c #433D47",
"%. c #423E52",
"&. c #3C4246",
"*. c #3D424B",
"=. c #354149",
"-. c #3C4354",
";. c #394359",
":. c #3D4761",
">. c #424246",
",. c #42444C",
"<. c #4C4A4D",
"1. c #484649",
"2. c #564A48",
"3. c #4F5446",
"4. c #5C534C",
"5. c #595946",
"6. c #434551",
"7. c #454A53",
"8. c #4A4D55",
"9. c #4B4E59",
"0. c #45485A",
"q. c #4D525B",
"w. c #4A5356",
"e. c #52545C",
"r. c #5A595C",
"t. c #575556",
"y. c #574C55",
"u. c #664B44",
"i. c #754A44",
"p. c #665A4A",
"a. c #75564A",
"s. c #665A55",
"d. c #785C53",
"f. c #5D634D",
"g. c #66644C",
"h. c #6C6453",
"j. c #696857",
"k. c #746C5B",
"l. c #78665A",
"z. c #73735C",
"x. c #787457",
"c. c #6E7558",
"v. c #444C64",
"b. c #495367",
"n. c #565A65",
"m. c #545D76",
"M. c #4C5771",
"N. c #685D63",
"B. c #5D6369",
"V. c #596379",
"C. c #686767",
"Z. c #776965",
"A. c #7A7766",
"S. c #797877",
"D. c #6A6F74",
"F. c #894E3B",
"G. c #88594A",
"H. c #855C54",
"J. c #8E5549",
"K. c #87665B",
"L. c #986558",
"P. c #916F57",
"I. c #A76758",
"U. c #B16D5D",
"Y. c #876C63",
"T. c #966B65",
"R. c #857869",
"E. c #99776A",
"W. c #867875",
"Q. c #977B75",
"!. c #966F70",
"~. c #A67769",
"^. c #B6776B",
"/. c #B67B73",
"(. c #A8736A",
"). c #C47D74",
"_. c #74813D",
"`. c #7C8657",
"'. c #7B8B49",
"]. c #7B8365",
"[. c #868E54",
"{. c #86876B",
"}. c #8C9764",
"|. c #888675",
" X c #968877",
".X c #95947A",
"XX c #92906D",
"oX c #A7816D",
"OX c #A78577",
"+X c #B98879",
"@X c #B1846F",
"#X c #98A46F",
"$X c #A9B275",
"%X c #9AA45D",
"&X c #C7877B",
"*X c #C7907B",
"=X c #767985",
"-X c #727B8D",
";X c #8D7B81",
":X c #798793",
">X c #888988",
",X c #988A84",
"<X c #989885",
"1X c #969697",
"2X c #898E95",
"3X c #A88C86",
"4X c #A59786",
"5X c #B69789",
"6X c #A59A96",
"7X c #B59B94",
"8X c #B98B86",
"9X c #9BA289",
"0X c #A7AB98",
"qX c #B5A499",
"wX c #AFB38D",
"eX c #A7A8A4",
"rX c #B8A8A6",
"tX c #B8B7A4",
"yX c #BBB9B6",
"uX c #959BA8",
"iX c #CB8B83",
"pX c #D28B84",
"aX c #C89789",
"sX c #D5958B",
"dX c #D89B91",
"fX c #CB9D95",
"gX c #C6A596",
"hX c #DAA698",
"jX c #D5B09E",
"kX c #E4A59A",
"lX c #C7B4A7",
"zX c #DCB8A8",
"xX c #C7B7B4",
"cX c #CEB1A7",
"vX c #E4B9A9",
"bX c #EDBAAC",
"nX c #E1998D",
"mX c #B9C495",
"MX c #BEC2B3",
"NX c #D6C7BA",
"BX c #EAC7B8",
"VX c #EEC7B5",
"CX c #C5CA8A",
"ZX c #BDC9CE",
"AX c #D3CEC9",
"SX c #F5D3C6",
"DX c #EED2C9",
"FX c #F7FDFD",
"GX c #E7EAE9",
/* pixels */
"< G 8 8 7 8 ! m F F C Z Z Z D Z P A C G G 6 b M N M G G Z M Z Z Z C 6 6 C Z G Z Z Z N D D N V N M Z n m J C 7 K G C G = Z D R c ",
"* G B L F 8 F 8 7 7 m n S S S S C 6 6 7 F G G G M N n 4 : 4 m Z J J J J J Z m n n M N D D V I I Z Z 4 4 C 7 6 J m C ^ G R n D n ",
"& G F K F 8 H 5 i H H A A A A S J J F 7 7 7 6 3 F F J J G m 6 6 6 7 y y 7 m C C Z Z G M b b b < n C m F P F 6 C * & m n I : n Z ",
"> J C H y ; y t 1 1 ; ; ; ; ; ; & 3 5 ; ; 5 7 8   % & * 3 3 8 5 3 3 & % o % & *   $ * * = N = < 6 4 & & 5 3 % 3 K 6 6 & Z n Z n ",
"u U u A y & ; O + + O O O O O X   X &       o X 1 2 &       X ; X , 2 9 i ! ( /  XXX4X X X4X{.{.7X Xk.p.k.k.k.|.k.k.l.m F Z P : ",
"w U S U u . ; X O X X o o . .         X X X ; 2   + z ~ 5.k.A.|.|..X<X0XtXtXtXwX4XXX4X{.{.4Xx.x.4X XR.R.R.A.h.k.h.R. XK 7 6 I 4 ",
"> U A T y & H ~ i i z z 9 9 9 2 2   o ! j.A.S.|.tXyXMXMXtX0X<X<X<X.X.X|.{.A.g./ ( 9 / i / {.g.g.p.p.h.z.|.z.5./ p.h.h.6 6 3 G 4 ",
"> I S J 3 3 h..X|.{.{.{.].].].].{.5.~ A.0XeX0X0XS.C.3.Q z z Q ~ j.5./ 5.j.c.c.j.z.( 5.9 ! ]./ / h.h.p.j.{.|.{.|..Xj.~ & F C K 8 ",
"c n n G B % {.wXmXmXmXwX#XmX#X`.wXMXc.~ ~ z Q Q r.r 2 z i 3.~ Q j.3.Q ! 3.5.5.5.j./ Q z f.].c.z..X4XR.k.0X{.<XtX<X/ L 5 F * F 7 ",
"b M N B <   R.$XmX}.`.}.' '.'.mX}.wX.X/ ~ f.A.1X|.j.C.1., o o 2 2 o     o o , 2 f.|.0X].f.c.{.tX6Xh.R.|.|.R.<Xg.p.i L i ^ F K m ",
"b M M B <   [.$XwX`.}.$X'.' ' $X`.}.wX5.~ A.<XAX|.r.t.i + o   o     . X o   o 2 3.].0X9X<X0X9X<X{.k.R.A..X|.A.c.5./ ( 3 7 * C 4 ",
"b M M B < o XXwX$X[.[._.] ' '.%X}.#XwXc./ z.,XNXs.t 2 X X 8 & o & O ; - X # o 2 # ~ <X|.z.A.c.j.h.k.A.h.A.A.h.{.g.k.h.8 7 6 J C ",
": G G G 8 % XXwX#X[.%X'._.%X%X%X$XmX#X.X`.j..X<XT ; 1 ; & 8 * * ; - O O O X X + 2 ~ |.z.~ 5.j.j.A.4.k.A.~ g.A.g.L p.h.8 J F J 6 ",
"> J J F 8 % {..XwX}.wXmXCXCX$X$X$X$X}.#X{.c..Xk.H X 5 J ) d.) ^ T u q q q q - 1 O 1 r.5.k 4.j.s.R.|.p.Y.|..X|.k.k.|.k.3 F 6 6 : ",
"w U U A 6 o x.R.wXx.[.' ' ' [.%X[.}.#X}.x.{.|.4.y $ J a.E.5XoXP.Z.y.T u e q - - . u 1XeXC.Z.6XxXA.NXp.R.NXtX<X4XlXlX|.6 P C C J ",
"> U S A y % k.x.( < ( < < % ] ' ' `.wX`.g..X{./ 3 C Y.OXoX@XoX+X7X;XZ.2.U w w t > . 2.Z.4.A.<X6X XNXh.4XqX<XqX.X|. Xp.% K C 6 m ",
"m 4 J 7 7 % K G ` ` _ _ _ W V < & ! |.|.{..Xc.! o p. XoX~.+X*X/.!.!.!.Q.T.i.I S = R 6 h.p.5.A.0Xg.NX0X9XtX<X<X.X{.h.R.* J G P 6 ",
"b 6 K m 3 % ) a.T.(.(.^.(.L.G._ 7 & ~ k.A.A.f./ i p. XOX@X^.L.F.E E i.H.T.i.c $ d.8X X4Xl./ c.<X|.tX<X.X9X{.{..XA.g.R.3 F m J m ",
": m P m 3 % K.OX~.^.^.^.^.(.L.K.d.8 i 5.A.A.5.5./ k.OX5X@XL.F.F.(.T.(.8XfX/.i.c T.cX7X4Xh./ 5.z..X{.{.A.A.z.g.].z.g.x.8 F 8 J C ",
": Z K m 3 % E.aX+X&X&X&X&X&X@X@XQ.p.p.4.j.|.k.3.k.k.P.E.~.I.U.^./.(.L.(.+X(.E v T.fX5XQ.Z.k.g.5.{.( A.j.g.A.5.g.z.g.h.7 F 8 G n ",
": D M M 8 * OXgXaXsXpXpXiXiX*X+XQ.l.Y.s.h.W.k.4.k.p.^ ` G.^.^.U.^.^./.+XiX/.L._ H.3X3Xl.h.k.p.~ R.! z.5./ {.g.5.5.( L 8 F 6 G 6 ",
"c I n M m * 5XgXdXsXpX&X&X&X+X+X8XK.Y.Y.h.j.4.4.~ ^ ) ` ` F.I.U.I.^.&XiXiX/.L.i.E T.3Xu.u.s.s.4.W.~ h.! i z.3.~ i 9 & 3 F m J n ",
"c I b Z m $ 7XjXhXdXsXsXsXsXsXaXgXE.E.l.p.Z.p.2.4.p.l.K.G.J.I.).).sXkXkXsX+XT.G.E H.3X2.s.W.W.|.A.~ 5.~ ! 3.z z ; 2   7 F 6 J m ",
": E n Z b $ gXvXaXiXpXpXpXsXsXsX+X~.T.P ^ ,XW.~ 6Xk.u.E.gXsX&X&X&XnXkXdXiX/.T.G.E u.l.y s.W.W.A.Z.~ ~ 4.5.~ + 2 + 1 o H J 3 G N ",
"c D b D 4 & gXvX(.^.).&XpXkXkX&X+X@X8XOX2.Z.j.s.W.6X3XOXaXiX^.&X^.I.U.pXsX/.L.H.a.I S R Z.W.Z.A.Z.j.j.3.r 1 r r - ; ; ; C P G < ",
"c D b G 4 $ gXvXdXsXpX&X&XdXkX&X/.~.~.T.s.6XS.k l 2.Q.5XE.L.I.J.^.U.I.U.^.(.T.T.E I u.s.3XDXDXAXtXs.3.|.|.~ - r O t i y 6 G G N ",
"b Z n G < $ 7XzXaX&X)./.^.iXsX&XI.(.~.K.l.xX>Xp p - W.7Xa.G.sX&XpX&X^.L.J.L.K.H.) Z ) d.Q.xXxXrXs.i i s.S.S.r.s @ $.s.T 6 m G B ",
"c Z b G < % gXvXaX&X&XiXiXdXhX&XJ.L.@XQ.Y.xX>X..>.2 Z.3Xa.L.bXbXdXhXsX(.H.K.H.) a.: R l.Y.d.R R ; i l - r e.9.O r t.Z.^ 6 m B N ",
": Z m G 3 % jXBXhXsXsXsXpXdXhX*XI.L./.5XQ.rXS.&.d r 2.R.K.T.*X*XiXhXfX(.K.K.d.^ ) Z d.OXOXd.n 6 t e r q # O q 0 r <.s.T 7 m B < ",
": Z m L 3 % cXBXbXhXdXsXsXhXkXhXsXI.~.5X4XrXS.&.f j Y 4.K.E.~.(.aXfX8XK.i.a.a.P P K.7X5X7XOXP 4 t . O r r 0 a g q s l u 7 B B < ",
": Z 7 L 3 % lXBXVXvXkXkXhXkXvXhX*XL.G.OX XeXD.&.w.7.>.~ p.E.@X~.8X8XE.i.R ) ^ J ) qXzX5X5XE.N : i r u p r s g 0 p r q t C F M N ",
": F 7 F 3 % gXBXvXfXsXsX&X+X~.L.L.` _ K.s.,XC.&.w.&.w.1.H d.E.i.T.!.d.R R ) ) P K.cXzX7XgXT.: R i e p g a a O.%...r - u F B N N ",
"3 F F m * % 5XBXzXaX~.~.+X+X@X~.~.@XH.R.R.j.S.d j x d k Y 4.s.s.W.s.T R u.I I a.jXvXzXvXcXK.n u u h p r ..e.8...k l i $ 7 C P b ",
"; y F G m = 5XBXjX+XP.~.aXjXvXvXzXfXK.Y.Z.4.>XC.B.2XD.d g >.Y 1.<.2.~ H m M G.jXVXbXVXBXgXu.y T s ..d p ..,.,.1.k Y 2.t H 8 G N ",
"3 F C m 4 & OXgXgX@XP.~.aXjXzXzX5XQ.a.l.p.p.MXGXZXFXeXr g 1.r Y e u i K a.T.5XVXVXVXSXDX3XR u Y s g d d  .j ..e.N.2.2.y K 6 G N ",
"7 F 6 8 * % Q.5X5X~.P.oX5XaX+XoXOX3XQ.Y.T T yXFXFXFX2X0 ..w.s Y Y 2.2.l.7XzXzXzXVXBXSXzXZ.U U s p p p g  .d ..C.1Xs.T ; K G P b ",
"3 C 7 7 6 *  X3X XE.E.OXaXaX+XOXH.E.Q.Y.2.t.yXFXGXeXw.d ..k h Y C.,XqXqXcXzXBXSXBXDXDX3XT s $.s p p p g  .p ..D.1XC.T ; J G P b ",
"& C F F 7 & K.Y.Q.Y.T.E.+X8X5X5X7X3X,XZ.~ h 8.e.>X,.*.e.j r h Y 4.,XlXNXDXDXDXSXSXDXrXs.q s $.O.h g d g  .p j n.S.Z.j.i F 8 G N ",
"* G J C 6 $ l.Z.R.Y.K.K.K.P.E.OXOXl.d.s.2.Y ..,.w.*.n.B.j r k k i 4.Y.qXDXSXBXNXNXrXZ.T s | O.o.....d p ..g h y.C.S.W.H 7 4 G b ",
"* G F 7 6 5 ,X7XZ.l.l.l.a.a.a.K.Q.s.d.Z.y.s ..C.6.B.D.6.d j k u H H K l.7XlXlXxX6XW.T s <.$.a o.g h p p ..&.&.8.=X>XA.t 6 m P = ",
"6 F J 6 5 ; ,XAXxX4Xl.u.u.a.a.u.u.2.s.Z.t.s s 8.7.B.C.6.g g h l T T T ~ ^ 2.2.4.T Y Y ....o.o.o.g d p p d  .>.<.C.S.|.5 5 m M N ",
"4 M J 7 y ; A.rXrXxXlX6XY.u.) u.s.y.2.2.$.g | o.8.n.n.6.g g h l l H T T T ~ ~ 1.Y Y ....o.o.o.o. .g d d g o.,.8.t.S.W.u 7 G M b ",
"= N J C y . 4.S.eX6X6X7XqX7XQ.Y.W.C.1.s s | | s 0.n.n.,.g g j j l l l l k k k k $.....o.*.*.-.*.........o.,.7.y.8.C.W.y F G M b ",
"= N G 7 u . Y <.C.>XrXxXrX7X7X7XrXS.$.r a | | a 0.b.9.o.g g j j k k k k k k ....&.&.*.*.,.*.6.,.,.>.&.*.,.6.8.y.8.C.W.y F G m 4 ",
"< M G 7 u . l ..g t.;X6XrXrXgXrXyXD.g a | [ [ O.0.0.6...g g j j j j ....o.&.*.*.*.*.*.,.,.,.,.,.,.,.,.,.,.6.8.8.t.C.A.t C C m b ",
"< M G 6 u . h h ..p s 2.W.7XrXqX1Xe.a g o.[ [ %.0.6.o.| g g j j f f  . .X.=.=.*.*.*.*.*.,.,.,.,.>.,.,.,.,.,.<.<.t.C.Z.5 7 M m N ",
"= M G 7 y O k g 6.8.<.Y l T d.W.N.o.a g O.O.O.o.0.%.O.g g g g j f }  . .X.X.=.=.*.*.*.*.,.>.,.,.>.,.,.6.6.6.,.1.y.r.j.5 y C N N ",
"= M K 7 i O ..g g f g $.2.2.T T $.o.| | | O.O.[ 0.o.| g g g g j  .X.X.=.X.=.=.=.*.*.o.o.$.>.>.>.,.,.,.6.6.6.,.1.<.t.s.5 H F M M ",
"= G B H 1 + l .. .| |  .o.*.*.*.,. .f | X.-.X.X.} @.X.| ..h s k g f  . . . .o.o.*.*.*.*.*.,.,.,.*.*.,.,.6.6.,.,.8.<.2.t H 7 J 6 ",
"= B m F 1 + l .. .} } { X.-.;.-.6.o.| f } } { { } } o.o.g h k h g  . . ...o.o.o.*.*.*.*.,.,.,.,.*.,.*.6.6.6.6.,.9.<.2.t H 7 J 6 ",
"= G m F 1 + l .. .} } } X.+.@.X. .o.*.o.{ { +.;.} a -.9.g g $.s j  . ...o.o.....*.*.*.,.,.,.,.,.,.,.,.6.6.6.6.6.9.<.2.t H 7 J 6 ",
"* B m H 1 + h .. .} } } X.X.X.X.[ o.0.-.@.X.+.+.+.a 0.n.| g >.s ..o.o.o.o.o.*.*.*.*.,.,.,.,.,.,.,.,.6.6.9.0.6.6.8.<.2.t H 7 J 6 ",
"= G m H 1 + h .. .} } } X.+.+.{ X.-.-.} } } { { @.a 0.n.O.g 1.g o.o.o.*.*.*.*.*.,.,.,.,.,.,.,.,.6.6.6.7.9.9.6.6.9.<.2.t H 7 J 6 ",
"= B m H 1 + h &.o.X.} { X.+.X.{ @.@.} } X.v.M.v.@.a o.v.o.O.,...,.*.*.*.*.*.*.*.,.,.,.,.,.,.,.,.6.6.6.9.9.9.9.7.9.<.2.t H 7 J 6 ",
"* G m H 1 - h *.*.X.X.X.+.+.+.{ { +.+.;.V.-X-Xm.v.+.X.6.6.o...,.,.,.,.,.,.,.,.,.,.,.,.,.,.,.6.6.6.6.7.9.9.9.9.7.9.<.2.t H 7 J 6 ",
"* F m H e - h *.-.-.+.X.+.+.+.+.{ @.v.m.-X2XV.X.V.n.6.6.q.%.| ,.6.,.,.,.,.,.,.,.,.,.,.,.,.,.,.,.6.6.9.9.9.9.9.7.9.<.2.t H 7 J 6 ",
"* G C A 1 - ..,.-.@.-.;.+.;.:.+.x b.-XuXb.-.n.=X:X2X=X6.n.| o.9.,.,.,.,.,.6.6.6.8.6.6.,.,.,.6.8.9.9.9.w.w.w.q.q.<.w.2.1 J 7 F m ",
"* G C A e - ..,.0.-.;.;.#.#.@.@.{ b.m.m.a n.2X2X=X=X=X9.n.-.9.e.6.6.6.6.6.6.6.6.9.6.6.6.,.6.6.9.9.9.w.w.w.q.e.e.9.t.2.1 H 7 F m ",
": G C A e @ ..6.0.-.;.:.@.#.+.b.;.;.-.0.-.-X2X=X=Xn.n.8.9.6.b.9.7.6.8.8.9.9.9.9.9.9.8.6.6.6.8.9.9.9.w.w.q.b.n.e.e.t.2.1 H 6 C m ",
": G C A e @ ..6.0.;.;.b.b.+.+.M.v.X.;.n.V.D.n.B.1XC.8.$.o.9.B.-.9.9.9.9.9.9.9.9.9.9.9.9.9.9.9.9.9.w.w.q.b.n.n.n.r.r.2.1 H 6 C m ",
": G A i e - ..6.0.0.;.b.m.:.#.b.M.b.-XB.w.,.1.S.AX1Xr.>...C.D.9.q.q.q.q.q.q.q.q.9.9.9.9.9.9.9.9.w.w.q.q.n.n.n.n.r.r.2.1 H 6 C m ",
": G A A e @ ..6.0.b.;.:.V.v.#.:.v.:XZXD.w.w.C.eXGXyXC.1.&.=XS.9.q.e.q.q.q.q.q.q.q.q.q.q.q.q.q.9.q.q.q.q.b.n.n.e.r.r.4.1 H 6 C m ",
": J A A e q ..6.@.m.v.;.m.M.:.m.V.:XZX=X=X>X>XyXAXAX|.<.<.2XD.*.q.e.q.q.q.q.9.9.q.q.e.e.e.e.q.q.q.q.q.q.q.q.q.e.e.r.4.t J 7 C m ",
": J A i e q ..6.} V.b.;.m.V.m.-XuXV.:Xe.1XeX>XyX6XAX2Xr.r.1XC.&.q.e.q.q.q.q.9.9.q.q.e.e.e.e.q.q.e.e.q.q.q.q.q.q.e.r.4.t T y F m "
};
