/* XPM */
static char *_06aa78252ec4210ac0cdf84a47499c66AL8DGtr945dCzPa[] = {
/* columns rows colors chars-per-pixel */
"64 64 226 2 ",
"   c #1D2C00",
".  c #1F3100",
"X  c #1D3900",
"o  c #202A00",
"O  c #223501",
"+  c #293703",
"@  c #253A01",
"#  c #2D3C03",
"$  c #2A380A",
"%  c #323E09",
"&  c #303606",
"*  c #2D4504",
"=  c #334203",
"-  c #35470A",
";  c #38460C",
":  c #3B4C0D",
">  c #354B07",
",  c #3D530D",
"<  c #3A4513",
"1  c #3C4C12",
"2  c #3C4D19",
"3  c #394415",
"4  c #3C5212",
"5  c #3C5417",
"6  c #434D0E",
"7  c #43570D",
"8  c #424E1C",
"9  c #425415",
"0  c #435A12",
"q  c #485C14",
"w  c #44551A",
"e  c #455A1B",
"r  c #4A5C1D",
"t  c #4C531D",
"y  c #535F1F",
"u  c #4D631C",
"i  c #4C661A",
"p  c #52671E",
"a  c #465424",
"s  c #4A5424",
"d  c #4C5C23",
"f  c #495926",
"g  c #525E23",
"h  c #525D2A",
"j  c #585F29",
"k  c #545F30",
"l  c #595B33",
"z  c #4D6223",
"x  c #4E612C",
"c  c #4E6922",
"v  c #536424",
"b  c #586624",
"n  c #556B24",
"m  c #596C25",
"M  c #54642A",
"N  c #59662B",
"B  c #546B2B",
"V  c #5B6C2C",
"C  c #5B7225",
"Z  c #5C732C",
"A  c #5D782E",
"S  c #5B6532",
"D  c #5D6C32",
"F  c #5E6B39",
"G  c #546632",
"H  c #5D7233",
"J  c #5E7932",
"K  c #5E733A",
"L  c #636F2F",
"P  c #62742E",
"I  c #647A2E",
"U  c #616C33",
"Y  c #636D3B",
"T  c #627434",
"R  c #647B34",
"E  c #697C35",
"W  c #64743A",
"Q  c #6A763C",
"!  c #657B3A",
"~  c #6B7C3C",
"^  c #6A7636",
"/  c #727D3D",
"(  c #657640",
")  c #6A7542",
"_  c #657A43",
"`  c #6C7C43",
"'  c #6E7E49",
"]  c #717D44",
"[  c #747D4B",
"{  c #707647",
"}  c #7A7F54",
"|  c #6B7550",
" . c #6A812E",
".. c #658135",
"X. c #6A8136",
"o. c #668239",
"O. c #6C833C",
"+. c #6E883F",
"@. c #72843C",
"#. c #748A3D",
"$. c #798B3E",
"%. c #718336",
"&. c #7A923F",
"*. c #6D8342",
"=. c #6F8942",
"-. c #6E8349",
";. c #738444",
":. c #798445",
">. c #758B44",
",. c #7A8C45",
"<. c #74844B",
"1. c #7A854B",
"2. c #758A4B",
"3. c #7B8C4C",
"4. c #769143",
"5. c #7B9245",
"6. c #77904B",
"7. c #7C924B",
"8. c #7E994B",
"9. c #7C9A44",
"0. c #7A8552",
"q. c #768B52",
"w. c #7C8C52",
"e. c #7E8B59",
"r. c #738654",
"t. c #7D9252",
"y. c #7E925A",
"u. c #7F9856",
"i. c #7E9164",
"p. c #808C4E",
"a. c #82874F",
"s. c #81944D",
"d. c #839A4D",
"f. c #8A9C4E",
"g. c #809446",
"h. c #818E53",
"j. c #828E5B",
"k. c #868C5A",
"l. c #839454",
"z. c #8A9655",
"x. c #849A54",
"c. c #899C55",
"v. c #84945B",
"b. c #8A955B",
"n. c #859A5A",
"m. c #8B9C5C",
"M. c #919E5C",
"N. c #88A14D",
"B. c #86A156",
"V. c #8BA255",
"C. c #87A15A",
"Z. c #8DA25C",
"A. c #8CA85B",
"S. c #92A45D",
"D. c #94AA5D",
"F. c #94A958",
"G. c #859361",
"H. c #8C9563",
"J. c #8C9C63",
"K. c #8F9E6A",
"L. c #879F63",
"P. c #919D63",
"I. c #949E69",
"U. c #979E73",
"Y. c #8EA362",
"T. c #8EAA63",
"R. c #8FA269",
"E. c #93A464",
"W. c #94AA63",
"Q. c #9AAC65",
"!. c #95A46A",
"~. c #9AA56B",
"^. c #96AA6A",
"/. c #9BAC6C",
"(. c #99A665",
"). c #9CB265",
"_. c #9DB26C",
"`. c #96B167",
"'. c #95A472",
"]. c #9BA573",
"[. c #96A971",
"{. c #9CAC73",
"}. c #9BAB79",
"|. c #9DB372",
" X c #9EB479",
".X c #9FB97A",
"XX c #8FA274",
"oX c #A1AD6D",
"OX c #A1B46D",
"+X c #A3B668",
"@X c #A2AE75",
"#X c #A2AD78",
"$X c #A4B374",
"%X c #A9B675",
"&X c #A4BA73",
"*X c #A9BB74",
"=X c #A4B47A",
"-X c #A9B57D",
";X c #A5B97A",
":X c #ABBB7C",
">X c #ACC27C",
",X c #ABC378",
"<X c #B3C57F",
"1X c #AAB483",
"2X c #ADBB83",
"3X c #A6B583",
"4X c #B1BD85",
"5X c #B3BB8B",
"6X c #AAAC85",
"7X c #AEC281",
"8X c #AEC588",
"9X c #B4C486",
"0X c #B5C38A",
"qX c #B5C889",
"wX c #BACC8D",
"eX c #B7C988",
"rX c #BBC392",
"tX c #BCCC92",
"yX c #BDD497",
"uX c #C0D08F",
"iX c #C3CB96",
"pX c #C9D798",
"aX c #CAD595",
"sX c #D2E39F",
"dX c #C7D8A2",
"fX c #D0E2A6",
/* pixels */
"7.7.J.N [ H.~.@X0.G r.-.8.9.7.x.^.R 3.O.x.>.O.Y.O t.*.n.R Z f <.-.R l.m.m./.T z.] v.Y j.P.1.l.OXX._.q._ J.}._ W +.R > t.v.x XXi.",
"R 7.<.Q H.U a.1.< $ [.6.B.C 7.W.m.^.4 ;Xx.>.c.l.v E.;.t.E.x.H w.M J.3.T W /.l.~.h.] Y f b.;.m.$X>.m.q.' {.2.{.d |.O.E.E.<.w.x 2 ",
"V.x.9 a k 0.H.F 0XJ.3.7.o.C.n.W.T !.w.;.V s.#.c.Z.O.;.l.^.m.( 2 w.l.l.m./ V 0.w.rX~.v.Q p.I.G.}.;.H M l.o.n.n.q.<.*.>./.n.b.m.,.",
"E Z *.}.G.1X}.{.!././.7XB Y.*.l.2.m.2.m.W m.5.5.R ;./.*.v.<.: -.H *.!.~ ;.U ~.<.v.#XQ /.P.0.<.0.[ !./.b x.q W w.3.w.e x.R 3.l.c.",
"r V 3.*.D v.v.l.;.l.E.0XJ.!.n >.E l.w.<.W w X.Z.3.v V w v !.T b.s.l.M J.].!.) b.0.h Q 1.[ #X{.8 | U.w.T ;.,.7.3.v J.W m.b ;.l.;.",
"<.{.~ l.|.v.n.;XOX/.-X<.fXn.O.R O.v.t.M <.` Q.7.~ D b.:X;.P 3.1.Q.(.) v.` {.v.<.-X^ 3.h.h j.0.H.$ 3X] b.3.r m.,.Y.n.f x /.H ` ;.",
"; <.-.1 u.Z.&Xm.%X/.1.0.}.W l.;.<.W w.` ;.l.>.: _.>.l.l.@.(.<./.,.Q.w [ [ w.W 2.;.h.I.[ [ s [ w ~.q.w.v.K.O +.OXT _ w.-.;.T 5 M ",
"v.q.K L.W.7.B.x.b.$X@XI.F G.V x.q.0.v.}.E n /.! e E.c.c.7.~ =XM l.v b.1.W 1.v.v $Xb.w.0.Y ' # {.Y.$Xf K.]._ ! u n.<.H ! ! c 2.t.",
"m.z q.B B.5.Q._./.b.z.I.e.G.m.l.<.G.' M ! l.>.~ !.x.Z.W.c.s.v.J.w.~ m.H ~ Z.;./.] # D ` n.J.M W V b.x.t.x '.n.>.x.n x.Z 5 y.x.W.",
";.v.-.u.C.`.A.n.m.1.h.b.].0.=Xv N Y M w.H n.O.Z.O.3.Z.m./.R !.<.e ! ;.B., 7.&X3.1.~ <.~ 7.~ # j.1.l.s.,.) F *.x.C ,XV.;.R v O.n.",
"[.1 7.Q.S.*XW.l.m.3.1.!.w.r %Xs.;.; J.w =X~ l.E.w.m.~ t.Z.m.l.7.T.-.9. .+X5.x.T t.*.t.~ s.R l.v.{ k.] Q N ] ~ F.,.>.I ).B.d.E.2.",
"d e `.4.>._./.n./.,.Q.V V ~ eXb.v.l.=X].dXw Q.s.;X: 7XZ v Z.c.;.H 2.&.N.f.7.n.7.Z n.;.m @.s.Z.w.3 } U.1.] 1.l.:.E W.c.d.X.#.s.v ",
"C.W.n s.R =X0XJ.1.OX+XD.7.2X2X2XJ.].K.K.q.|.P I s.O.X.Q.t.t.! Z /.W.B., &X>.D.7.Q.x.Z >.X.W.V ~ [ 6X& 8 1.z.T v.<.;.V W.@.d.E Z.",
"B.R 4.@.;.E.` f m./.F.C 5.*X$XJ.J.G.e.` v./.7.,XW.n.7.x.3.m.;.t.>.d.>.Z.Z.O.7.X.$.#.+.,.E W.Z.Q [ H.l [ l.:.Q S /.B `.@.>.R ,.D.",
">...O.#.OX3.M.l.=Xq.! _.F.f.{.J.J.J.w.] Y.P _.Z *.>.n.n.#.7.>.T x.A O.^.Z @.4.c.X.d.d.4.E Z W.$XU ].0.S 3.@.Q W.>.C B.*.B `.R 4.",
"2.n >.#.W.;.3.!.=X` 7Xx.5.).J.J.) ] ) !.2.m.^.V 7._.x.n.B.p n.x.D.Z.,.3.t.7.c.7 B.B.B.>.E.;.P 3.D 0X#X1 3.p.2.;.>.).+.Y.O.O.o.7.",
"Y., C B.7.m.t.l.S./.:X` =Xq.=X!.$XQ E.~ e ;Xn.7.x.w.v.V 5.V.Z.~ d.D.A.#.~ D ,.%.X.4.>.o.T E.3.H -Xj.P.T v # H >.l.l.! E u W.>.,.",
"x.Z.x.C.Z.T.!.;XF.).$X~.G.s m.~ $X!.!.w.E.x.l.Z.!.1.m.(.,.m.l.m.7.#.8.8.E.w.,.@.7.7.R m.- 1.O.l.` W : h.v.d 2.v.~ E.l.t.E.Z.V l.",
"f.4.X.Z ;Xn.` >.d.c.{.'.1 @Xm.;.p.3.w.l._.OX>.x.:XM.:.Q.^ ] l.P.l.+.B.4.Y.3.9 :X+.B.c.7.w 3.>.B.s.>.v *.H <.' w.3.9 3.v.!.2.! w.",
"%.,.;.~ >.;.x.m.D.Q.) j.I.l.E.l.1.!.!.=X/.d.c.OXb.3.@.s./.^ z.T ;.Z.>.x.;.$XQ /.Z B.#.C.l.m.E c.*X;.2.: H /.}.w r J.n.! !.) m.2.",
"3.v ;.7.n _.3.l.$.g.3.1.W Y !.<.!.:Xv.<.3.&XS.,.m.M.%X:.%XsXV $X,.8.O.7.E E.1.b.*.x.4.n.v ` >XZ /.! ~ z >.m.V 2.F 8 ` ;.2.` ;.n.",
"w.w.;.7.4.%.,.W.Q.S.y %X1XS G.v.~.1.9 J.<.^.~ l.~ Q 1.6 @.s.6 ;.7.8.Z c.X.c.;.Q B B X.Z.>.;.B e B c -.~ *.Y.Y.W ) % %X3.*.H ! n.",
"T : v.9 7.%.c.x.V l.(.L m.J.d <.~.] !.}.h !.{.;X3.!.p.z.Q.+Xf.Q.q 6.R Z X.Z.l.U w.7.d.q Z R c.).=.! |.J.;XW v.<.3.l.r !.W f V >.",
"@.l.!.E.W.D.d.@.b.b.b.z.p.V E.!.N Q Q Y <.W ~.q.] 4Xl.c.s.Q.Q.@.O.O.Z.s.E R ~ M 2.~ x.%.+.7.>.5.X Z.4 |.^.q.J.[.:X1.E.;.` M W *.",
"P w.D :XW.d.F.c.c./.[ b.E oXR Q S.z.M.3.:.;.3.V w.tXq.2.l.(.wX= T Q.i c.>.b.2.v.V *.x., @._.7.u u.o.7.n R 2.E.W {.+ ( <.<.B z J.",
"~ Q M m.s.B.V.,.:.s.P.% *XQ.1.$XS.M.z.p.%XS.l.T 3Xw.{.! R m.m.W E.x.,.Z.E m.! T ~ l.Y.e Z E T *.o.A.O.5.W.^.T Y.. k K.}.r v t.' ",
"w.-Xw.l.@.$.m.Z.@.%Xb.rX/.b 3.m.b 1.=XW 1.c.1.:X! ` Z.T 2.Z.;X~ v 3.<.Q ;.T t.9 T m.T ~ D.N.X.7.x.>.O.&X^.5 v.q.2.qXy.J.W ^.- $X",
"!.] 3.P Q.V.S.3.eX%Xg N 3.$X;.l.v.v.[ ) P.1.m.r ;.;.! =.Z Z./.2.Q M Q T 3.n.x.Z.Z.1.;XO.5.&.>./.>.u &X_.5 yX-.B t.3.d v.*., x.Z ",
"e w.T c.%.#.*X4Xf G.P.OXc.s.>./.R.W M {.w.~ Y.R Y.u.Y.n.n x.H + !.b.b./.X.>.C.>Xm E.3.M ,.D.`.c.t.;.V <.D d @ q.q.8XM n.eX7.B.n ",
"3.Q E.(.@.f.c.v.'.f $Xc.Z.,.3.W.n.W J.wXW t.7.2.7.yXB 2.W.7.^.$Xb.P.1.1.OX4.`.u Q._.R E.R x.>.7.3.r B W - ;X*.D q.2.T `.x.0 d.5.",
"@XP.l.@.D.S.3.l.!.!.w.1.;.S.,.Z.|.t.t.~.l.^.T n.2.H 4 n.*.W.D b.b.1.S h &X8.O.B.>.m./.R O.,XP l.c.OXT n.e l.=Xq. Xn.3.T x.: c.:.",
"{.D @.c.5.E @.E.%X!.!.S l.s.n C.>.4 y.2.Y.2.-.H K B n x.2.3.;.b.b.b.iXY Z R W.>.W.E 1./.x.X.3.:.%./.l.B {.e }.K t.H H $XY.E.Q.S.",
"x.;.@Xm.c.+XZ l.` 1.S v.!.,.z.%X! >X2.! m.{.~ H *.*.* 4.n.r :Xv.~.[ } ) ~ E 7.;.s.,.M.,.E.T m.@.c.@.*.y.J.Y + 2.r C.4 ;Xd ;XE.c.",
";.;./ ^ P Q.m.!.1.) ] g l.;.b.@X;.n.>.O.{.2.^.z .X*.T.T.;.;.D Q j I.S v.n.Z.r !.E.:.M.,.;.1.; ~ c.s.! -.a [.v.:XZ.W.B =Xd v.%XT ",
"x.;.M.M.Q N h.0.2X-X1.Q 3.J.rX!.l.! n l.~ m.l.` y.-.H _.v.v.w.l.:./ ;.1.E.^.t.1.T $Xl.3.l.1.Q ,.@.9 B v.d w.3.E.n.D ;.<.;.E.l.J.",
"l.b.m.l.J.J.  <.2Xl.l.aX!.M f F ;XT 7.+.l.Z l.w.f _ H 2.W ( ;./.~ M.,./.;.;X4 3.w.1.W <.~ b.1.b.*.V t.z Y.;.7.2.:XQ @X!.z./.Q b.",
",.s.V R w.W ].w.P.;.~.Q b.; <.=Xe.z >.W.7.m.T <.K y.l.;.m s.>.W.S.E S.P E.1 Z.x.R ;.l.v /.E.b.;.<.K Y.&XZ eXZ W 2XS rX1Xk.4X:.M.",
"Q.S.~ W ] =XQ Q ~.V 3.P.Y H.v.w F r D.W.Z.r ;./.D 1 h.s.s.m.W.Q.7.x.S.7.s.~ _.m 7.l.2.w.b.= N ~ 3.t.u C 7.7.Y.v.W { ].s k.U ,.p.",
"3.&X, n.3.Q 1.b.D !.$X1.-X# 1.!.7.x.;.n 0 x.>.V P.@XP.m.b.3.Z.7.|.*.Z.T ;.V I D.0 X.&XC.E 7.;.V 7.,.> *.! 2.n.q.) { Y j a.oX:.oX",
"l.u W.Z ~ l.Q ` ~ 9 v.P.t j ` 3.O.c.s.n.R ! 3.W #X~.:./.h.l.;.n.y.m.m.m.S.;.d.$.V.7.8.R s.Z l.~ B.p Z.;.^.n.<.W M w.] z.z.] @XS ",
"w.<.Z.>.E.` I.4XJ.` Q 1.[ #X@X9 T t.E E 3.-.v.!.5X) p.z.9Xr T.! z n.|.~ E $.d.7.D.5.8.8.R 7.l.P I d.m.Y.-Xr : <.3.;.l.aXb.l.b.J.",
"M ~ O.o.v.2X) ` T <.T F ].s <.J.d !.;.l.<.2Xv.I.H.].,.b c.;.-. X*.n.7.n Z.Q.d.u W.4.).8.C.x.V x.Z W.n /.l.Q :X1.E 7.T R ;.` !.<.",
"^.*.l.7.T g T W 1.Q q.s ) Y W l.~.W b.v.}.G.w.Q b.~.l.<XS.x.2.n.4.W.4.O.$.V.7.7.Q.=.7.o.O.l.E 7.Z C._.@.M.b.;.m.*.n.*.e H m.3.m.",
"H >.7.E 0 v c.sXN V @XD v.!.E.. T r !.E.v.H.h.l.b.Q S.$.P >.S.Z.f.&.#.X.5.C 7.Z.V O.7.7.>.>.W.>.Z R x.OX:.~ !.;.l.~ ! -.H m.Z.>.",
"W.W.m.n +X$.I 7 J.!.` e $Xn , ! m.!.m.M.~ 3.T $Xw.E.). .d.D.x.W.g.C 5.d.W.Z.t.l.*.x.7.u x.x.D.>.F.$.P l.v !.{.f w.W m.;.+.c.;.Z ",
">.x.,.3.+X).c.s.D r l.<X4.7./.w.!.3.%XM.Q.,./.~ - $XD.9.x.4.Z.P %.d.).E C.t.&X*.V ;.l.n 7.O.4.R E ,.s.E !./.!.1Xe.G d _.s.Z.*.7.",
"d.P @.;.  $XE ;.b.E.S.7.> V w.J.G.f /.;.!.!.m.m.2./.n.A.).d.F.D.c.,.s.Q.*.n.~ >._.E s.@.d.#.4.x.= b.T m.E ~ < 0.) P.g (.;.3.;.! ",
"V.D.s.T {.W $XZ.P *X!.l.^.*.` G.2 H.P.b.l.Q ~ 3.x.&X=.8.*XF.,.*X/ V ;.W.l.O.C.x.l.s.q S.F.5.7.n.r 3.s.4.c.2.z <.` D E.M.l.V m.n.",
"f.D.S.m.z E n.~ b.!.9 V Z.S.D 0.H.P.].P.1.m.c._.&X,.s._.c.s.3.m.P.h.p.V X.Z.d.c.E $XQ /.T ,.X.(.n.l.$.d._.7.n.* B Z.c.m s.M.J.-.",
"7.7.d.>.E >.T m.r 2.# h.OXl.;.<.] U P.v.3.uX7.,.7.D.S.@._.S./.!.~.iXp.,.s.B.I c.E J.;.~.P E.s.,.~ O.V.#.V.;.-.e ! 6.D.Q.,.S.v.m.",
"s.+.c.4.7.@ * H >X;.2.T 1 # v P.:X] 1.P.m.=X= /.s.>.c.S.~ W ] g ~ s.r p Q.>.o.Z.` w.<.;.E 7 E Z.n.R X.0 n z 2.W -.Y.;.$XR R s.Z.",
";.c.B.i 0 *.|.B Z.7.m.l.q.M {.b M.~.r ;./.l.3.OXQ >.D.&X~ /.m.l.oX3.(.E.u O.R V ! |.l.T X.B.C.u c o.7._.O.<.R.v./.w.:.l.!.T m.P ",
"4.8.O.7.>.>.*.sXn.T n.v.;X=Xm.l.!.e c./.Q V 7.P ~ W E.3.m.Y.n.m.;.W._.2.>.O.S.>.t.9 7.u >.H 7.t.o...B.n.@ r.8 !.oXM.%Xs./.pXV /.",
"4.B.Z C.X.+.Q.> w T e <.tXb.w.J.T %XV ,.m.m.E.1.v.3.l.R V 9Xv.*.x.m.qXB , _.Z 4.2.m.2.7.>.H y.u R A.T.B K y.<.1.~ / 3.: ;.s.: ;.",
"i #.~ T X.C , -.` v.Y.m.<.S ` 1 W.S.s.$X!.J./.m.!./.3.3.E.Y.Y.~ P 7.>Xr ^.n.n.m.<.w.;.! R >.n.B J A A R J W.U @Xp.oX,.(.W.E.S.S.",
"X.;.Y.3.x.x.> ;X<.M ~ *.; f v.9X/.3.V $Xg h.J.] 1.(.;._.3.O.t.*.>.4.qX~ B ;.) <.` ` v -.u Z.J =.Z.Z.>...8.X.(.h.1.%X3.Q.s./.Q.$.",
"H _.n >.l.z Y.H J.K r H J.2 ; M t.E.3./.;.!.w.~ l.E.v.M ;.3.R >.>.,./.w.<.S g ` F # w.w /.*.2.! W 2.>.V.i O.x.v ~ wX7.7.s._.uX= ",
"n.n.l.|.M [.2.2.1 w x.l.2 O <.=Xm.^.;.!.m.;.w m./.b !.T T n x.>.;.>.r # v.J.w.$XW G.rXv.! H B n.S b.S.4.&Xc.7.2.^.n._.o.X.x.l.` ",
"v w.<.v.<.z ! * ( f n.! O 2 M *.H T ~ l.Y.-.t.7Xl.H u ,.3.S.> eXl.=Xj.=XV b.$X1.1.~.~.v.~ 9 W -.o h l.~ 4.A.l./._ 2.T.J ;.n.@X) ",
"` d ` f e 9 ! t.# q.! ! w.D qXt.l.>.E.l.q.w.z O.V 3.P 7.;.v m.V /.;.` J.!.P.~.b.iX0XM W V |.^.v.I.H.h.;.S.>.T.! G q.! R n Y.!.) ",
"J.J.v.J.0.1 2.9 V ;Xz m.>.x.Z.;._.*.Z.;.2.m.~ n.*.7./.~ m.l.l.b v b.6 g Q (.:X9XN G.I.$Xb.Z.7./.E.W S v.2._ R.*.! 2.x.`.R m.' a ",
"v.J.].W J.w.J.r l.3.-.v.&XX.l.Y.v n.7.E.n.7._.*.Z T 7./.Q ~ $XV T Q P.l.] (.S.b.!.f -Xm./.7.7.Q.l.W J.!.5 t.-.2.2.8Xz t./.Z. X}.",
"~.v.` I.q.q.W <.Z Z.|./.>.c.7.>.O.Z.Z.0 E.n.T.*.Z.>.Z ;.R /.-X^ rXk.b.1.(.S.,.s./.P.w.3.l.m.7.Y.|.t.t.^.x.W.~ x.<.K 2 v.3.Q.Z C.",
"0.) % w.d d ) J.x.o.J.*.c.f.Q.E R Z 2.~ O.x.R 2.Z d.>.T /.b.1.I.Y h.8 m.s.@.%.Z.$Xm./.T 7.l.V Z.2.4 n.;.Z.#.$.Z W K f 0.l.E B.V."
};
