/* XPM */
static char *_324d94a741f4ec4fc76ec4e27831455yVPjqesRSN2Z4zlo[] = {
/* columns rows colors chars-per-pixel */
"64 64 146 2 ",
"   c #0A0A00",
".  c #272500",
"X  c #2D2A00",
"o  c #2D2A00",
"O  c #333004",
"+  c #363206",
"@  c #393506",
"#  c #363208",
"$  c #3B370C",
"%  c #3E3A0E",
"&  c #3C3811",
"* c #3F3B10",
"=  c #413D0E",
"-  c #403C10",
";  c #433F14",
":  c #454118",
">  c #463F15",
",  c #494516",
"<  c #474319",
"1  c #4B471B",
"2  c #4E4A1D",
"3  c #514D1E",
"4  c #4E4A20",
"5  c #4F4B20",
"6  c #514D21",
"7  c #534F23",
"8  c #555128",
"9  c #585428",
"0  c #565225",
"q  c #595526",
"w  c #5C5827",
"e  c #575328",
"r  c #5B572B",
"t  c #5E5A2D",
"y  c #5C5831",
"u  c #5F5B30",
"i  c #605C2F",
"p  c #615E2E",
"a  c #625E2E",
"s  c #605C30",
"d  c #605C30",
"f  c #615D31",
"g  c #615D30",
"h  c #605C31",
"j  c #625E30",
"k  c #635F31",
"l  c #605C32",
"z  c #615D32",
"x  c #615D33",
"c  c #615D33",
"v  c #625E32",
"b  c #625E31",
"n  c #635F30",
"m  c #605D32",
"M  c #635F32",
"N  c #625E33",
"B  c #635F32",
"V  c #646030",
"C  c #656131",
"Z  c #646032",
"A  c #656133",
"S  c #646033",
"D  c #635F34",
"F  c #635F35",
"G  c #656135",
"H  c #646035",
"J  c #666234",
"K  c #646036",
"L  c #656136",
"P  c #656137",
"I  c #666236",
"U  c #676337",
"Y  c #635F33",
"T  c #666239",
"R  c #646031",
"E  c #646033",
"W  c #676333",
"Q  c #666233",
"!  c #666235",
"~  c #676336",
"^  c #666237",
"/  c #676336",
"(  c #666235",
")  c #686434",
"_  c #686436",
"`  c #696537",
"'  c #686437",
"]  c #6A6637",
"[  c #6A6637",
"{  c #696536",
"}  c #676338",
"|  c #676339",
" . c #676338",
".. c #686438",
"X. c #696538",
"o. c #686439",
"O. c #6A6638",
"+. c #69653A",
"@. c #6A663A",
"#. c #6B673B",
"$. c #6A6639",
"%. c #6A6639",
"&. c #6B673A",
"*. c #6A663B",
"=. c #6C683B",
"-. c #6B673C",
";. c #6D693C",
":. c #6C683E",
">. c #6D693E",
",. c #6B673B",
"<. c #6D693A",
"1. c #6E6A3D",
"2. c #6F6B3E",
"3. c #6E6A3F",
"4. c #6E6A3D",
"5. c #706C3F",
"6. c #716D3E",
"7. c #6E6A40",
"8. c #6F6B40",
"9. c #6F6B41",
"0. c #706C40",
"q. c #716D41",
"w. c #716D40",
"e. c #706C41",
"r. c #726E41",
"t. c #747043",
"y. c #747044",
"u. c #747045",
"i. c #736F42",
"p. c #797549",
"a. c #767245",
"s. c #767247",
"d. c #757145",
"f. c #797547",
"g. c #7A7646",
"h. c #797545",
"j. c #767248",
"k. c #787449",
"l. c #7B774B",
"z. c #7A764B",
"x. c #7C7848",
"c. c #7D794D",
"v. c #7A764A",
"b. c #7E7A4D",
"n. c #817D4D",
"m. c #837F53"
/* pixels */
"5 : - 7 1 ..t 7 b b % , 7 7 E 3 0 r e e b q.e t d 7 2 7 t 7 p x 2 ; < H t ..b , r 0 7 r H 2 7 - e ^ 7 e : e 1 x 7 e 3 _ d 3 E t ",
"< x ..1 y.7 b 1 O p ) , 0 ) q ; [ r 2 H r H 7 e 7 t r p H H 0 7 < H x x % < 0 =.3 2 8.t x t r -.b t - 1 ..2 H x 7 e d x ..) q 7 ",
": e x : 7 7 S t 1 0 r r t 1.t 3 [ 7 0 p x 2 H t 2 $ 7 % 0 H t 1 < 7 1 1 7 ..t.t X.X.e t 7 x x x + : 1 7 t 1 e 2 O k.7 $ 7 ^ e 1 ",
"q.$ 1 7 1 e 0 7 2 7 e 1 t 0 r g.E 7 ) 1 -.e 7 e 1 1 e t ) ) O S -.% t e t } b 0 X.x % 7 -.z.x : 1 t x 7 2 ..e % 7 - t t X.X.+ ^ ",
"x O 7 0 7 7 7 t t x t ^ 7 1 r 7 > > r r r ..H x H t H 7 e #.7 1 ^ % 1 % ) ) 0 H ; 2 r 7 g.; 3 e r p -.7 -.2 t x H x ..2 t B 7 2 ",
"r H > 7 t t 7 t 7 7 2 7 * ; % 7 0 t.1 s.5 7 1 t e e : 7 d 7 0 ; b 1 % t 2 t s.2 # ..r 2 7 7 x.0 r q.t t 7 H 7 2 e 7 1 0 r 7 x = ",
"5., > p 7 x e 2 2 x < t 1 7 7 } e 2 r 0 > 2 0 1 -.2 7 7 b 0 2 ^ t > E 0 [ X.B 1.c.X.r H S 7 p , S [ 1.7 2 0 ....1.5 1 r x 7 5 | ",
"..^ 1 t H 0 ^ 1 e 7 r e 2 : q...3 t r r b.5.; c.7 5 y.H ^ 7 x 2 q 0 3 E b t t 1 2 t 7 S 3 r 1 3 <.E $ b 1 ) e ..t < k.^ x e b 0 ",
"b X.b 1 % r 7 $ 1 7 $ r ; 2 e e r $ 0 b ^ t b 3 r 7 2 ..1 2 1 > d.[ b t 2.^ 1 2 * - 1 1 1 7 , i 0 > ; 7 S t.7 $ r x y.r } 7 > b ",
"7 2 > ..: t 7 b -.} 1 e 7 H -.0 2 r 7 7 7 e 7 e t 7 t 7 % r ..b 1 i q t > 2 -.7 7 7 7 .., r 7 3 S <.b e ^ > 2 5 b t e e H e 0 E ",
"E , 2 2 e B 1 } e B u . ^ - 7 -.2 - p e ^ ^ 0 2 t =.t p 1 8.y.0 r q 0 0 , e r e k.. t : 7 t.) ) 7 ^ 7 X.5 t 7 - e 7 1 2 H 7 0 7 ",
"> i b E < t e b x ; B k.s.7 1 7 #.q...e t r 0 2 t q.2 2 t X.5 $ > r i r B ; 7 r -.r e k.0 , S p b 1 1 r u 2 7 7 2 7 H : $ > 0 1 ",
"= <.[ 0 0 t e < r r < 5 1 7 e 7 7 2 7 - % ^ % ) 0 2 r > 1 x 7 ^ > b 1.B % 7 r } 2 1 0 7 7 r p S 0 3 1 H 1 1 7 7 7 O -.-.2 ..0 0 ",
"7 t q q | 1 7 t 7 2 r : S - = S x 7 7 7 r 3 0 0 1 ; O $ 2 e x H e : H O -.k.H e 7 5 7 7 1 t * t 1 $ e e x 7 H q.H q.x 7 r r 1 b ",
"t 0 1 % t q % 1 - 2 : 2 r S 5.q.e H 7 7 > r 2 ^ , r t 1 x 3 7 -.7 2 5 e e 7 r 7 * 7 ^ ^ t x e B 7 < 7 -.x 2 7 1 t 2 2 - 9 H 3 p ",
"[ i 3 <., = < r q.x e b e e = 0 - : H ; H 7 0 X.^ 7 > t t ) ) 2 5 7 x ..r 7 < e 8.e 1 H 1 1 7 k.-.2 2 7 e H % e t x r r 7 r r 0 ",
"=.0 =.7 t 0 1 7 S r 1 r H 0 > p 3 3 t t b 3 i i q 0 0 0 w @ r t 0 3 3 ) , r 1 7 ..7 : t 7 % e 2 : 1 7 e t : t r 0 i S p r S 0 t ",
"i 3 7 3 X.r + 7 =.r 3 1.1 i 7 r q = 3 i 6.q 1 t t > E 0 i q 3 > i t S p 0 e $ 7 X.7 7 $ % u 7 7 7 $ 7...H 2 0 ) 3 = 7 3 w w p p ",
"3 3 7 r b t 3 t t % 0 ; 7 1.0 p q 3 i t [ 1 r ; %.0 w 0 <.E 0 0 7 r t B t t 5 e 0 : 1 0 $ 0 t.0 2 r 7 e t 2 x ) 3 3 p r 7 > 0 , ",
"1 S p 7 : 1 7 t 3 7 0 7 % 7 - 0 q t., 0 r 0 X.2 t 0 , , [ 1 i / 7 2 ; ; 7 % 1 t B ..: ; 7 0 t.7 7 2 * 7 7 2 2 x p p 1 S r p p r ",
"0 7 7 t ..7 % 7 ..-...7 q.r ; 1 3 5.) ; t r ^ % 7 $ x 3 t <.0 ) 2 ; t 5 t e 1 2 t t 1 1 p t > n.1 4 1 1 t 7 x d 7 , 3 + ) -.7 7 ",
"= , ..% - x : 7 H x -.2 q.: 0 y.+ p 7 r % 0 r 2 : 0 p x p 7 E r b 2 1 1 u t O e 1.7 0 1 x 7 [ S : 7 d y.- 9 H $ 7 5.- ..q.p : 2 ",
"q.t - ..x 2 m.- : e x : e t - 7 $ 0 ^ x 2 #.e x 7 1 e - 7 3 7 1 7 7 7 r b t 7 r u ; e 1 7 x b $ e e - 6 t 7 2 2 t 7 r - 7 6 < #.",
"7 k...7 x x -.-.7 7 7 -.t 2 2 1 , 7 1 -.2 : t 7 t e x x , H r 7 , E r S ; 1 7 r 7 5 r 7 - 7 5 7 r e 7 1 1 H H -.- 7 e r 9 $ r Y ",
"t 1 # t y.r x $ t r b t > u 7 t 7 _ H t e % 7 7 H q.2 e t e 7 r S 0 1 S 7 7 1 7 -.-.q.7 q.x ; e t b r t 7 x e k.d 6 4 9 ; 6 4 H ",
"7 8.x e ^ H e 1 0 k.t ; 7 k.e 7 x 7 e x 1 1 7 q.q.t 1 2 $ 1 r H 2 0 q., t ^ 2 > 8.-.-.> q.> 2 u t k.r + 2 k t d Y $ 9 6 r ; -.1 ",
"e 2 $ r H 5 q.t t.0 7 - e ^ B r H e 1 7 < e 8.7 7 1 7 ..q.7 t x e -.r t 7 e r * 7 7 x 7 7 0 1 p 0 ) ^ 2 2 1 : p.t 6 - $ x 7 q.; ",
"7 2 x : t e ) x 1 ; $ 7 e t 7 2 2 e - e t x u r 7 * 7 H 7 k.x 7 8.u 1 t 5 t 1 B 7 x e ^ S 3 , 0 r 1 e S ) 7 H 1 1 x d e : 6 t 1 ",
"0 % , > t t 1.3 0 @ r b X.b 7 : 2 0 - t 1 2 < x 1 2 7 -.r 1 , 2 e : < < e 7 7 7 - e X.r > r , r t 0 =.S 7 2 9 9 x 7 2 1 2 } | t ",
"q , / 1 E 7 [ X.3 6.7 t.s.b ^ 0 H y.7 e n.7 2 1 : 1 ..1 7 q.e d H y.8.2 * 1 : 7 e 8.x 1 1 7 5.g.g.=., [ =.t 6 Y Y : 7 e 7 r ; t ",
"0 t 1 2 t q E 1 3 %.q > 1 <.t X.p ) t q.r l.q.: t e q.- 7 2 2 - 7 X.1 t 1 t y.t q.7 7 % y.: 7 t b r 3 r 3 > #.Y t q.> } X.0 % ^ ",
"1.2 t , 0 i ^ 2 6.0 r 0 i 3 r t , 7 e t H e 7 t : H e : 2 e ....X.7 0 O , 1 7 u 2 : $ e < 9 8.2 0 1 E 7 1 r ..0.t e e r r b 2 s.",
"2 ; 2 ..-.6.2 r 5 r u 2 * r e -.0 3 p 7 0 : 2 k 7 7 7 H e t - t O x y.3 1 b 8.e 7 - r 5 % t r e r 7 0 0 ^ t.7 e x 2 2 2 x 7 H t ",
": } 2 e 2 7 0 t X.7 9.u x < 2 > t t : 5...x 7 0 2 H r 7 q.x t 7 e e 7 x 0 7 X.} e -.8 y.H 1 2 - 0 =.7 ^ 7 b e e 2 t t H H ..0 7 ",
"; t 2 t H u 7 :.9.o e t 1 2 X.8.x 0 3 t 3 > -.t 1 % 7 x H y.O 7 B t e 2 ; b / e ; u u +.- 1 y.r b 0 , t ^ 2 H r 2 $ 7 $ 7 ..7 2 ",
"q.+ r y.2 $ * u t * u b t r H r 7 x r p r 2 7 t 7 r H 2 e : : q.B 7 r t i 0 E 2 7 < * } 7.1 e 7 > q t 7 t 7 7 x 2 1 t e -.-.O H ",
"x $ b y.> 7 ..5 % B t 7 t r 7 2 S s.0 = t x 7 0 r -.r < 1 5 ^ 5 0 y.0 i 6.<.3 t < r e 7 t u 7 - ..[ 5.0 t.> X.e x t ..7 0 ^ 7 1 ",
"t t 5 H 1.^ 0 t q.% 8.r H x : ..7 p 1 b : t 7 =...e t 7 ..e x x 1 q = ; q 0 1 r t.% j.y ..7 e 0 2 7 3 0 2 3 7 x e t : e t 7 t > ",
"H 1 2 e ; 7 u q.-.X r t 7 e 2 2 0 b 7 t.1 H ; 2 1 t 1 x 1 B u 7 0 1 r 3 t [ 3 1.9.o r y 1 5 *.2 0 i t $ $ 0 -.0 -.1 7 e x e 2 H ",
"..e H x 0 b 0 r t - H 7 e 2 e H 2 2 t b ; 2 1 b 5 7 e t r H 7 1 =.S g.r t a q t r * < # y & e t t S r , 0 H x 7 x < y.H B 7 B 7 ",
"2 1 H x t - ..7 1 x t x t % e b r t } 7 7 - 7 2 S 7 , 7 0 p S % , 3 3 ) 3 w i 7 < y #   5 r 7 7 x i X.0 k.- B b 5 x y.e H 7 1 b ",
"7 1 t.5 1 ..e e : : 2 H } r r t e 5 7 -.$ ; k.x r ^ x > 0 O 0 X.7 0 E ) 3 > i 0 1 e 7 :.< ; 1 7 1 7 7 t 1 7 2 B 0 r 7 0 ..u 7 t ",
"r ^ 1 7 7 H : 2 q...x 7 k.e : 1 < } 1 7 0 -.r x > X.r - r 7 1 x 7 7 X.1 + , : 7 r x 1 u e u B 7 0 t x % $ e t.7 X.7 7 7 r r x 1 ",
"-.7 7 ..k.e x t x - 7 ^ 7 t ..1 t : 1 e 7 ^ 7 5 = ^ 2 r 2 3 7 r 1 ..e 7 0 3 7 -.5 e 8.H 5 # r r 2 t.7 % r ^ H 7 B ; b B r 1 ; e ",
"< 7 ^ 7 e r H H 7 : t x ; < b 8.2 e 2 2 7 2 1 x 7 7 ; : H r t t ..e H 1 7 7 ^ H t 7 ..B t : 7 q.x x 7 1 2 7 t H 2 H X.=.$ 3 3 0 ",
"0 b t r t 1 5 7 t 7 2 ; 7 k.1.H -.y.7 H k.x 1 : 7 H 0 r e 3 r 1 7 ; r t % 0 u 7 -.e 5 : e ..p ..1 U x e 1 : t 7 e e b 3 0 0 = i ",
"t e 1 % H 1 t x 5 $ 7 0 t t b 0 } t % : q.q.x - S 2 x 0 2 3 x - U 4 1 7 -.7 7 0 e ; t 4 1 7 q.: e 1 : $ : d 1 : 7 7 3 ; , E 3 p ",
"X.E 5 9.- 1.} t 1 e ; 2 t X.t r % 2 e e q.% t 7 0 S 7 : , r 7 t N < 4 H N % e x t t.k.2 y.7 ) = x e 2 -.2 r 2 7 2 7 t 0 7 r r w ",
"} r =.7 ^ r S r b 0 > b 2 i d.7 ; N x 7 1 r t.t > 7 7 7 - 7 7 r H $ 1 t t 0 : 2 x ) e x 3 p 3 3 p 3 : e = =.S 7 2 $ H p p S w w ",
"b 2 7 2 ; ; > > 7 1 b 3 [ 1.t b c...t H ^ r ) - 2 7 0 0 x - 7 7 e e B e t 1 p 7 r 1 p 0 r 0 7 r 3 = S = 0 b 3 t.X.; 0 7 0 0 W p ",
"7 X.% 5.7 7 -.1 R 0 2 E E i t 7 1 x 7 e 1 r 1 2 b 0 p S : x 5 : 7 7 : ; k 7 % 1 7 _ ) 3 , r =.p =., p 1 r t t 5.3 7 p 0 0 , 1 r ",
"t 1 2 ^ - 7 ; 7 t.^ [ t / t , 1 % % 2 7 7 3 1 ^ r e 7 2 7 ..x t 1 } x 7 % 3 7 p 3 7 p r 1 =.p $ 1 , p 5.^ e X.=.0 t 1 b p 0 p 7 ",
"7 t b 3 = i [ b 1 ^ 7 0 1 2 6.7 7 7 e x 2 S 7 7 x ) 0 ) ....B 7 e e 7 t H 7 $ 7 -...p 1 7 q 1 , H H 7 e b b % 2 e 2 2 O S q.1 r ",
"x X.r i 1 5.y., t B 0 7 5 0 q 7 y.O e 1 7 ) g.) t t 0 3 2 2 7 7 $ 2 x - : t , 3 r x S p 5.3 7 <.-.^ 2 H 2 e r 2 2 ..= ) y.7 p 1 ",
"p %.3 3 r s.; > % 7 6.e b * 7 H U x H q.r 2 p r t 7 e ..6 7 e H y.e $ } t 2 c.> ; 0 p 7 x e , ^ t ; % ; r t.7 e r e t : 2 e r 3 ",
"3 , 3 = 1 t r -.1 ) ^ r $ r u 8.- 1 x q.x 7 p p 2 1 % t q.y.7 Y 7 z.-.2 H x q.H 3 7 r ) t 2 , r 0 7 2 p H y.% 2 ; 7 t e 3 r + =.",
"5 1 $ % 2 3 w ^ 0 * ^ o 8.y.7 e 7 x 7 7 7 x 7 c.r 7 e t t t 2 ..e 1 $ t s.e x $ t 0 -.x - x 1 r 1.^ r 0 r 5 % q.t 7 1 r 1 7 0 7 ",
"2 2 ^ , E 0 q r r < 2 x t 2 -.b % 7 x O 1 x H 0 ) $ 6 U ..7 t 1 7 y.x e ^ -.e 1 0 z.r < 2 7 -.5.b 7 -.% 7 1 t 7 X.% t = 7 r 1 ) ",
"[ q > b r b ^ t 7 r b =.7 7 7 % ..H H t 1 1 - c.e 7 : O y.x 7 : e 2 $ t ^ 7 -.x s.2 7 * y.- e 2 B e b e u r t p 7 X.H 1 E 0 i ^ ",
"q 0 0 r r % 7 r 0 3 3 [ 1 t H ..k.- 1 H #.7 H 1 7 d x t 7 t % 7 6 2 H : t e -.x 1 ; $ 7 1 7 q.2 7 1 < | 2 u p 7 x 0 r r ^ r 0 S ",
"t > b = <.w q 1 b t ^ r 1 7 ) ) u x b -.7 7 e 7 t 7 7 ; 2 b -.1 t - 1 1 t e q.0 7 * t 2 - x e 7 5 u u } 7 q.1 r ; E r S 6.0 1 0 ",
"/ r b R X.w 0 1 7 7 r : e 0 1 0 e t > ..-.x 2 ..x 1 2 e 7 e 1 e 1 7 x : H 7 e H t 1.7 y.t : 2 : t u ; } r r 1 1 S ; S p i , 0 > ",
"w 1 = , 1.2 b d.0 0 2 E ) 5.r 1 t.x 5 u 7 : -.H x ..: -.X.0 - ..7 7 2 ..H t t 7 - t x H 5 7 -.x 5 7 e r 7 : t 7 r [ q [ i q = a ",
"%.> ^ , q 2 3 X.S 3 1 S ) r =.p 2 t B 7 7 t H q.e e e 7 t x 7 y.-.1 H e -.e * 7 7 1 - X.7 : t 7 1 u H % e 5 0 e p r w E q i 3 6."
};
